<?xml version="1.0" encoding="iso-8859-1"?>
<!-- Uploaded to: SVG Repo, www.svgrepo.com, Generator: SVG Repo Mixer Tools -->
<svg version="1.1" id="Layer_1" xmlns="http://www.w3.org/2000/svg" xmlns:xlink="http://www.w3.org/1999/xlink" 
	 viewBox="0 0 508 508" xml:space="preserve">
<circle style="fill:#FD8469;" cx="254" cy="254" r="254"/>
<path style="fill:#E6E9EE;" d="M434.8,400.8H73.2c-6,0-10.4-4.4-9.6-9.2l0.4-3.2c0.4,3.2,3.2,5.6,8,5.6h364.4c4.8,0,7.6-2.4,8-5.6
	l0.4,3.2C445.2,396.4,440.8,400.8,434.8,400.8z"/>
<path style="fill:#324A5E;" d="M394.4,310.4H113.6c-9.6,0-17.6-8-17.6-17.6V113.2c0-9.6,8-17.6,17.6-17.6H394
	c9.6,0,17.6,8,17.6,17.6v179.6C412,302.4,404,310.4,394.4,310.4z"/>
<rect x="108.4" y="114.4" style="fill:#84DBFF;" width="291.2" height="176.4"/>
<path style="fill:#FFFFFF;" d="M436,394H72c-6.4,0-9.6-4-7.2-9.2l28.8-67.2c1.6-3.6,6.8-6.4,12-6.4h297.2c5.2,0,10.4,2.8,12,6.4
	l28.8,67.2C445.6,389.6,442.4,394,436,394z"/>
<g>
	<path style="fill:#CED5E0;" d="M260.8,325.6h-16c-0.8,0-1.2-0.4-1.2-1.2l2-5.6c0.4-0.4,1.2-1.2,2-1.2h15.6c0.8,0,1.2,0.4,1.2,1.2
		l-2,5.6C262.4,325.2,261.6,325.6,260.8,325.6z"/>
	<path style="fill:#CED5E0;" d="M260.8,325.6h-16c-0.8,0-1.2-0.4-1.2-1.2l2-5.6c0-0.4,0.8-1.2,2-1.2h15.6c0.8,0,1.2,0.4,1.2,1.2
		l-1.6,5.6C262.4,325.2,261.6,325.6,260.8,325.6z"/>
	<path style="fill:#CED5E0;" d="M261.2,325.6h-16c-0.8,0-1.2-0.4-1.2-1.2l1.6-5.6c0-0.4,0.8-1.2,1.6-1.2h15.6c0.8,0,1.2,0.4,1.2,1.2
		l-1.2,5.6C262.8,325.2,262,325.6,261.2,325.6z"/>
	<path style="fill:#CED5E0;" d="M261.6,325.6h-16c-0.8,0-1.6-0.4-1.2-1.2l1.2-5.6c0-0.4,0.8-1.2,1.6-1.2h15.6c0.8,0,1.6,0.4,1.2,1.2
		l-0.8,5.6C262.8,325.2,262.4,325.6,261.6,325.6z"/>
	<path style="fill:#CED5E0;" d="M261.6,325.6h-16c-0.8,0-1.6-0.4-1.2-1.2l0.8-5.6c0-0.4,0.8-1.2,1.6-1.2h15.6c0.8,0,1.6,0.4,1.2,1.2
		l-0.4,5.6C263.2,325.2,262.4,325.6,261.6,325.6z"/>
	<path style="fill:#CED5E0;" d="M262,325.6h-16c-0.8,0-1.6-0.4-1.6-1.2l0.4-5.6c0-0.4,0.8-1.2,1.6-1.2H262c0.8,0,1.6,0.4,1.6,1.2
		v5.6C263.6,325.2,262.8,325.6,262,325.6z"/>
	<path style="fill:#CED5E0;" d="M262,325.6h-16c-0.8,0-1.6-0.4-1.6-1.2v-5.6c0-0.4,0.8-1.2,1.6-1.2h15.6c0.8,0,1.6,0.4,1.6,1.2
		l0.4,5.6C263.6,325.2,262.8,325.6,262,325.6z"/>
	<path style="fill:#CED5E0;" d="M262.4,325.6h-16c-0.8,0-1.6-0.4-1.6-1.2l-0.4-5.6c0-0.4,0.4-1.2,1.2-1.2h15.6
		c0.8,0,1.6,0.4,1.6,1.2l0.8,5.6C263.6,325.2,263.2,325.6,262.4,325.6z"/>
	<path style="fill:#CED5E0;" d="M262.4,325.6h-16c-0.8,0-1.6-0.4-1.6-1.2l-0.8-5.6c0-0.4,0.4-1.2,1.2-1.2h15.6
		c0.8,0,1.6,0.4,1.6,1.2l1.2,5.6C264,325.2,263.2,325.6,262.4,325.6z"/>
	<path style="fill:#CED5E0;" d="M350.4,325.6h-16c-0.8,0-1.6-0.4-1.6-1.2l-1.2-5.6c0-0.4,0.4-1.2,1.2-1.2h15.6
		c0.8,0,1.6,0.4,1.6,1.2l1.6,5.6C351.6,325.2,351.2,325.6,350.4,325.6z"/>
	<path style="fill:#CED5E0;" d="M375.6,325.6h-16c-0.8,0-1.6-0.4-1.6-1.2l-1.6-5.6c0-0.4,0.4-1.2,1.2-1.2h15.6c0.8,0,1.6,0.4,2,1.2
		l2,5.6C377.2,325.2,376.8,325.6,375.6,325.6z"/>
	<path style="fill:#CED5E0;" d="M401.2,325.6h-16c-0.8,0-1.6-0.4-2-1.2l-2-5.6c0-0.4,0.4-1.2,1.2-1.2H398c0.8,0,1.6,0.4,2,1.2l2,5.6
		C402.4,325.2,402,325.6,401.2,325.6z"/>
	<path style="fill:#CED5E0;" d="M260.8,337.2h-16.4c-0.8,0-1.2-0.4-1.2-1.2l2.4-6c0.4-0.8,1.2-1.2,2-1.2h16c0.8,0,1.2,0.4,1.2,1.2
		l-2,6C262.4,336.8,261.6,337.2,260.8,337.2z"/>
	<path style="fill:#CED5E0;" d="M261.2,337.2h-16.4c-0.8,0-1.2-0.4-1.2-1.2l2-6c0-0.8,1.2-1.2,2-1.2h16c0.8,0,1.2,0.4,1.2,1.2
		l-1.6,6C262.8,336.8,262,337.2,261.2,337.2z"/>
	<path style="fill:#CED5E0;" d="M261.2,337.2h-16.4c-0.8,0-1.6-0.4-1.2-1.2l1.6-6c0-0.8,0.8-1.2,1.6-1.2h16c0.8,0,1.6,0.4,1.2,1.2
		l-1.2,6C262.8,336.8,262,337.2,261.2,337.2z"/>
	<path style="fill:#CED5E0;" d="M261.6,337.2h-16.4c-0.8,0-1.6-0.4-1.2-1.2l1.2-6c0-0.8,0.8-1.2,1.6-1.2h16c0.8,0,1.6,0.4,1.2,1.2
		l-0.8,6C263.2,336.8,262.4,337.2,261.6,337.2z"/>
	<path style="fill:#CED5E0;" d="M262,337.2h-16.4c-0.8,0-1.6-0.4-1.6-1.2l0.8-6c0-0.8,0.8-1.2,1.6-1.2h16c0.8,0,1.6,0.4,1.6,1.2
		l-0.4,6C263.6,336.8,262.8,337.2,262,337.2z"/>
	<path style="fill:#CED5E0;" d="M262,337.2h-16.4c-0.8,0-1.6-0.4-1.6-1.2l0.4-6c0-0.8,0.8-1.2,1.6-1.2h16c0.8,0,1.6,0.4,1.6,1.2v6
		C263.6,336.8,263.2,337.2,262,337.2z"/>
	<path style="fill:#CED5E0;" d="M262.4,337.2H246c-0.8,0-1.6-0.4-1.6-1.2v-6c0-0.8,0.8-1.2,1.6-1.2h16c0.8,0,1.6,0.4,1.6,1.2l0.4,6
		C263.6,336.8,263.2,337.2,262.4,337.2z"/>
	<path style="fill:#CED5E0;" d="M262.4,337.2H246c-0.8,0-1.6-0.4-1.6-1.2l-0.4-6c0-0.8,0.4-1.2,1.6-1.2h16c0.8,0,1.6,0.4,1.6,1.2
		l0.8,6C264,336.8,263.6,337.2,262.4,337.2z"/>
	<path style="fill:#CED5E0;" d="M262.8,337.2h-16.4c-0.8,0-1.6-0.4-1.6-1.2l-0.8-6c0-0.8,0.4-1.2,1.2-1.2h16c0.8,0,1.6,0.4,1.6,1.2
		l1.2,6C264.4,336.8,263.6,337.2,262.8,337.2z"/>
	<path style="fill:#CED5E0;" d="M353.2,337.2h-16.4c-0.8,0-1.6-0.4-1.6-1.2l-1.2-6c0-0.8,0.4-1.2,1.2-1.2h16c0.8,0,1.6,0.4,1.6,1.2
		l1.6,6C354.8,336.8,354,337.2,353.2,337.2z"/>
	<path style="fill:#CED5E0;" d="M379.6,337.2h-16.4c-0.8,0-1.6-0.4-2-1.2l-1.6-6c0-0.8,0.4-1.2,1.2-1.2h16c0.8,0,1.6,0.4,2,1.2l2,6
		C380.8,336.8,380.4,337.2,379.6,337.2z"/>
	<path style="fill:#CED5E0;" d="M405.6,337.2h-16.4c-0.8,0-1.6-0.4-2-1.2l-2-6c-0.4-0.8,0.4-1.2,1.2-1.2h16c0.8,0,1.6,0.4,2,1.2
		l2.4,6C407.2,336.8,406.4,337.2,405.6,337.2z"/>
	<path style="fill:#CED5E0;" d="M260.8,349.6H244c-0.8,0-1.2-0.4-1.2-1.2l2.4-6.4c0.4-0.8,1.2-1.2,2-1.2h16.4c0.8,0,1.2,0.4,1.2,1.2
		l-2,6.4C262.8,349.2,262,349.6,260.8,349.6z"/>
	<path style="fill:#CED5E0;" d="M261.2,349.6h-16.8c-0.8,0-1.6-0.4-1.2-1.2l2-6.4c0.4-0.8,1.2-1.2,2-1.2h16.4c0.8,0,1.6,0.4,1.2,1.2
		l-1.6,6.4C262.8,349.2,262,349.6,261.2,349.6z"/>
	<path style="fill:#CED5E0;" d="M261.6,349.6h-16.8c-0.8,0-1.6-0.4-1.2-1.2l1.6-6.4c0-0.8,0.8-1.2,2-1.2h16.4c0.8,0,1.6,0.4,1.2,1.2
		l-1.2,6.4C263.2,349.2,262.4,349.6,261.6,349.6z"/>
	<path style="fill:#CED5E0;" d="M262,349.6h-16.8c-0.8,0-1.6-0.4-1.2-1.2l1.2-6.4c0-0.8,0.8-1.2,1.6-1.2h16.4c0.8,0,1.6,0.4,1.2,1.2
		l-0.8,6.4C263.6,349.2,262.8,349.6,262,349.6z"/>
	<path style="fill:#CED5E0;" d="M262,349.6h-16.8c-0.8,0-1.6-0.4-1.6-1.2l0.8-6.4c0-0.8,0.8-1.2,1.6-1.2h16.4c0.8,0,1.6,0.4,1.6,1.2
		l-0.4,6.4C263.6,349.2,263.2,349.6,262,349.6z"/>
	<path style="fill:#CED5E0;" d="M262.4,349.6h-16.8c-0.8,0-1.6-0.4-1.6-1.2l0.4-6.4c0-0.8,0.8-1.2,1.6-1.2h16.4
		c0.8,0,1.6,0.4,1.6,1.2v6.4C264,349.2,263.2,349.6,262.4,349.6z"/>
	<path style="fill:#CED5E0;" d="M262.4,349.6h-16.8c-0.8,0-1.6-0.4-1.6-1.2V342c0-0.8,0.8-1.2,1.6-1.2H262c0.8,0,1.6,0.4,1.6,1.2
		l0.4,6.4C264,349.2,263.6,349.6,262.4,349.6z"/>
	<path style="fill:#CED5E0;" d="M262.8,349.6H246c-0.8,0-1.6-0.4-1.6-1.2l-0.8-6.4c0-0.8,0.8-1.2,1.6-1.2h16.4
		c0.8,0,1.6,0.4,1.6,1.2l0.8,6.4C264.4,349.2,263.6,349.6,262.8,349.6z"/>
	<path style="fill:#CED5E0;" d="M263.2,349.6H246c-0.8,0-1.6-0.4-1.6-1.2l-0.8-6.4c0-0.8,0.4-1.2,1.2-1.2h16.4
		c0.8,0,1.6,0.4,1.6,1.2l1.2,6.4C264.8,349.2,264,349.6,263.2,349.6z"/>
	<path style="fill:#CED5E0;" d="M356.4,349.6h-16.8c-0.8,0-1.6-0.4-2-1.2l-1.2-6.4c0-0.8,0.4-1.2,1.2-1.2H354c0.8,0,1.6,0.4,2,1.2
		l1.6,6.4C358,349.2,357.2,349.6,356.4,349.6z"/>
	<path style="fill:#CED5E0;" d="M383.6,349.6h-16.8c-0.8,0-1.6-0.4-2-1.2l-2-6.4c0-0.8,0.4-1.2,1.2-1.2h16.4c0.8,0,1.6,0.4,2,1.2
		l2,6.4C384.8,349.2,384.4,349.6,383.6,349.6z"/>
	<path style="fill:#CED5E0;" d="M410.4,349.6h-16.8c-0.8,0-1.6-0.4-2-1.2l-2-6.4c-0.4-0.8,0.4-1.2,1.2-1.2h16.4c0.8,0,1.6,0.4,2,1.2
		l2.4,6.4C412,349.2,411.6,349.6,410.4,349.6z"/>
	<path style="fill:#CED5E0;" d="M261.2,362.8h-17.6c-0.8,0-1.6-0.4-1.2-1.2l2.8-6.8c0.4-0.8,1.2-1.2,2-1.2h17.2
		c0.8,0,1.6,0.4,1.2,1.2l-2.4,6.8C262.8,362.4,262,362.8,261.2,362.8z"/>
	<path style="fill:#CED5E0;" d="M304,362.8H202.8c-0.8,0-1.6-0.4-1.2-1.2l2-6.8c0.4-0.8,1.2-1.2,2-1.2h98.8c0.8,0,1.6,0.4,1.6,1.2
		l0,6.8C306,362.4,305.2,362.8,304,362.8z"/>
	<path style="fill:#CED5E0;" d="M262.8,362.8h-17.6c-0.8,0-1.6-0.4-1.6-1.2l0.4-6.8c0-0.8,0.8-1.2,1.6-1.2h17.2
		c0.8,0,1.6,0.4,1.6,1.2v6.8C264.4,362.4,263.6,362.8,262.8,362.8z"/>
	<path style="fill:#CED5E0;" d="M262.8,362.8h-17.6c-0.8,0-1.6-0.4-1.6-1.2v-6.8c0-0.8,0.8-1.2,1.6-1.2h17.2c0.8,0,1.6,0.4,1.6,1.2
		l0.4,6.8C264.4,362.4,263.6,362.8,262.8,362.8z"/>
	<path style="fill:#CED5E0;" d="M263.2,362.8h-17.6c-0.8,0-1.6-0.4-1.6-1.2l-0.4-6.8c0-0.8,0.8-1.2,1.6-1.2H262
		c0.8,0,1.6,0.4,1.6,1.2l0.8,6.8C264.8,362.4,264,362.8,263.2,362.8z"/>
	<path style="fill:#CED5E0;" d="M263.6,362.8H246c-0.8,0-1.6-0.4-2-1.2l-0.8-6.8c0-0.8,0.4-1.2,1.6-1.2H262c0.8,0,1.6,0.4,2,1.2
		l1.2,6.8C264.8,362.4,264.4,362.8,263.6,362.8z"/>
	<path style="fill:#CED5E0;" d="M360,362.8h-17.6c-0.8,0-1.6-0.4-2-1.2l-1.6-6.8c0-0.8,0.4-1.2,1.2-1.2h17.2c0.8,0,1.6,0.4,2,1.2
		l1.6,6.8C361.2,362.4,360.8,362.8,360,362.8z"/>
	<path style="fill:#CED5E0;" d="M387.6,362.8H370c-0.8,0-2-0.4-2-1.2l-2-6.8c0-0.8,0.4-1.2,1.2-1.2h17.2c0.8,0,1.6,0.4,2,1.2l2,6.8
		C389.2,362.4,388.8,362.8,387.6,362.8z"/>
	<path style="fill:#CED5E0;" d="M415.6,362.8H398c-0.8,0-2-0.4-2-1.2l-2.4-6.8c-0.4-0.8,0.4-1.2,1.2-1.2H412c0.8,0,2,0.4,2,1.2
		l2.8,6.8C417.2,362.4,416.4,362.8,415.6,362.8z"/>
	<polygon style="fill:#CED5E0;" points="298.4,386 209.6,386 211.2,370.4 296.8,370.4 	"/>
</g>
<rect x="248.8" y="99.6" style="fill:#2B3B4E;" width="10.8" height="10.8"/>
<g>
	<circle style="fill:#324A5E;" cx="254" cy="104.8" r="3.6"/>
	<path style="fill:#324A5E;" d="M246,185.2l22,23.2c-2,1.6-4,3.6-5.6,5.6l-22-23.6C242.4,189.2,244.4,187.6,246,185.2z"/>
	<path style="fill:#324A5E;" d="M272.4,179.6c1.2,2.4,2.8,4.4,4.8,6.4L236,216.4c-1.2-2.4-3.2-4.4-5.2-6.4L272.4,179.6z"/>
	<path style="fill:#324A5E;" d="M267.2,204c-2,1.6-4,3.6-5.6,5.6l-21.2-21.2c2-1.6,4-3.6,5.6-5.6L267.2,204z"/>
</g>
<g>
	<circle style="fill:#FFFFFF;" cx="254" cy="170.4" r="24.8"/>
	<circle style="fill:#FFFFFF;" cx="254" cy="228.4" r="24.8"/>
	<circle style="fill:#FFFFFF;" cx="254" cy="168.4" r="24.8"/>
	<circle style="fill:#FFFFFF;" cx="349.6" cy="224" r="24.8"/>
</g>
<circle style="fill:#FFD05B;" cx="349.6" cy="224" r="14.4"/>
<g>
	<circle style="fill:#FF7058;" cx="254" cy="168.4" r="14.4"/>
	<circle style="fill:#FF7058;" cx="254" cy="228.4" r="14.4"/>
</g>
<circle style="fill:#2C9984;" cx="254" cy="170.4" r="14.4"/>
</svg>