<?xml version="1.0" encoding="utf-8"?><!-- Uploaded to: SVG Repo, www.svgrepo.com, Generator: SVG Repo Mixer Tools -->
<svg version="1.1" id="Uploaded to svgrepo.com" xmlns="http://www.w3.org/2000/svg" xmlns:xlink="http://www.w3.org/1999/xlink" 
	 width="800px" height="800px" viewBox="0 0 32 32" xml:space="preserve">
<style type="text/css">
	.feather_een{fill:#111918;}
	.st0{fill:#0B1719;}
</style>
<path class="feather_een" d="M20,13.5L20,13.5c0,0.276-0.224,0.5-0.5,0.5h-7c-0.276,0-0.5-0.224-0.5-0.5v0
	c0-0.276,0.224-0.5,0.5-0.5h7C19.776,13,20,13.224,20,13.5z M12.5,16h7c0.276,0,0.5-0.224,0.5-0.5v0c0-0.276-0.224-0.5-0.5-0.5h-7
	c-0.276,0-0.5,0.224-0.5,0.5v0C12,15.776,12.224,16,12.5,16z M12.5,18h7c0.276,0,0.5-0.224,0.5-0.5l0,0c0-0.276-0.224-0.5-0.5-0.5
	h-7c-0.276,0-0.5,0.224-0.5,0.5l0,0C12,17.776,12.224,18,12.5,18z M30,16c0-1.972-0.956-3.716-2.424-4.81
	c0.256-1.805-0.288-3.701-1.676-5.089c-1.167-1.167-2.693-1.738-4.222-1.738c-0.29,0-0.58,0.021-0.867,0.061
	C19.716,2.956,17.972,2,16,2s-3.716,0.956-4.81,2.424c-0.288-0.041-0.578-0.061-0.867-0.061c-1.529,0-3.055,0.571-4.222,1.738
	C4.713,7.489,4.168,9.385,4.424,11.19C2.956,12.284,2,14.028,2,16s0.956,3.716,2.424,4.81c-0.256,1.805,0.288,3.701,1.676,5.089
	c1.167,1.167,2.693,1.738,4.222,1.738c0.29,0,0.58-0.021,0.867-0.061C12.284,29.044,14.028,30,16,30s3.716-0.956,4.81-2.424
	c0.288,0.041,0.578,0.061,0.867,0.061c1.529,0,3.055-0.571,4.222-1.738c1.388-1.388,1.933-3.285,1.676-5.089
	C29.044,19.716,30,17.972,30,16z M26.978,20.008l-0.476,0.355l0.084,0.588c0.225,1.585-0.283,3.131-1.393,4.242
	c-0.932,0.932-2.18,1.445-3.515,1.445c-0.242,0-0.486-0.017-0.727-0.051l-0.588-0.084l-0.355,0.476C19.051,28.263,17.59,29,16,29
	s-3.051-0.737-4.008-2.022l-0.355-0.476l-0.588,0.084c-0.24,0.034-0.485,0.051-0.727,0.051c-1.335,0-2.583-0.513-3.515-1.445
	c-1.111-1.111-1.618-2.657-1.393-4.242l0.084-0.588l-0.476-0.355C3.737,19.051,3,17.59,3,16c0-1.591,0.737-3.051,2.022-4.008
	l0.476-0.355l-0.084-0.588C5.189,9.464,5.697,7.918,6.808,6.808c0.932-0.932,2.18-1.445,3.515-1.445
	c0.242,0,0.487,0.017,0.727,0.051l0.588,0.084l0.355-0.476C12.949,3.737,14.41,3,16,3s3.051,0.737,4.008,2.021l0.355,0.476
	l0.588-0.084c0.24-0.034,0.485-0.051,0.727-0.051c1.335,0,2.583,0.513,3.515,1.445c1.111,1.111,1.618,2.657,1.393,4.242
	l-0.084,0.588l0.476,0.355C28.263,12.949,29,14.409,29,16C29,17.59,28.263,19.051,26.978,20.008z M2,31c0,0.552-0.448,1-1,1
	s-1-0.448-1-1c0-0.552,0.448-1,1-1S2,30.448,2,31z M4,26c-1.105,0-2,0.895-2,2c0,1.105,0.895,2,2,2c1.105,0,2-0.895,2-2
	C6,26.895,5.105,26,4,26z M4,28.923c-0.509,0-0.923-0.414-0.923-0.923c0-0.509,0.414-0.923,0.923-0.923S4.923,27.491,4.923,28
	C4.923,28.509,4.509,28.923,4,28.923z"/>
</svg>